<?xml version="1.0" encoding="UTF-8" standalone="no"?>
<!-- Generator: Gravit.io -->
<svg xmlns="http://www.w3.org/2000/svg" xmlns:xlink="http://www.w3.org/1999/xlink" style="isolation:isolate" viewBox="0 0 100 140" width="100pt" height="140pt"><defs><clipPath id="_clipPath_0JVWfY25PqxgjtJ7h7f85hLPxYRQrM80"><rect width="100" height="140"/></clipPath></defs><g clip-path="url(#_clipPath_0JVWfY25PqxgjtJ7h7f85hLPxYRQrM80)"><g><g><path d=" M 66.91 45.327 C 63.549 45.161 62.489 38.452 62.241 36.177 C 61.751 31.667 60.765 20.262 68.24 21.316 C 74.801 22.241 73.498 28.62 72.581 33.374 C 72.069 36.027 71.051 45.532 66.91 45.327 Z  M 37.758 36.177 C 37.511 38.452 36.45 45.161 33.09 45.327 C 28.949 45.532 27.931 36.027 27.419 33.374 C 26.502 28.62 25.198 22.241 31.759 21.316 C 39.235 20.262 38.249 31.667 37.758 36.177 Z  M 77.488 51.091 C 71.276 48.121 72.498 45.822 72.965 43.274 C 73.432 40.726 74.978 36.498 76.836 28.438 C 78.812 14.956 69.286 17.084 67.304 17.387 C 66.823 17.461 66.219 17.453 63.549 16.981 C 64.274 15.147 66.241 9.248 65.694 6.216 C 65.22 3.478 62.918 5.074 60.94 5.561 C 59.162 6 50.141 9.135 39.06 5.561 C 36.953 4.882 34.78 3.478 34.306 6.216 C 33.758 9.248 35.726 15.147 36.451 16.981 C 33.781 17.453 31.808 17.461 31.328 17.387 C 29.346 17.084 21.188 14.956 23.164 28.438 C 25.022 36.498 26.568 40.726 27.035 43.274 C 27.502 45.822 28.724 48.121 22.512 51.091 C 16.3 54.062 6.489 61.85 10.8 72.71 C 15.111 83.57 36.656 124.925 36.656 124.925 C 36.656 124.925 37.899 127.209 36.906 130.114 C 35.952 132.907 38.496 135.214 50 135.389 C 61.504 135.214 64.049 132.907 63.094 130.114 C 62.101 127.209 63.343 124.925 63.343 124.925 C 63.343 124.925 84.889 83.57 89.2 72.71 C 93.511 61.85 83.7 54.062 77.488 51.091 Z " fill="rgb(55,53,53)"/><path d=" M 38.472 129.567 C 38.472 133.138 39.872 133.835 50.004 133.982 C 60.135 133.835 61.536 133.138 61.536 129.567 L 38.472 129.567 Z " fill="rgb(254,254,254)"/><path d=" M 61.926 13.892 C 63.34 12.478 63.814 11.769 63.814 8.839 C 63.814 6.394 61.37 7.833 59.63 8.263 C 58.064 8.648 50.125 11.408 40.37 8.263 C 38.516 7.665 36.186 6.394 36.186 8.839 C 36.186 11.71 36.981 12.798 38.074 13.892 L 61.926 13.892 Z " fill="rgb(254,254,254)"/><clipPath id="_clipPath_nKZ7cUyYQiK2EFZYRrp0YzjgBb8oXB6j"><path d=" M 48.589 135.407 C 61.322 135.407 64.087 133.019 63.094 130.114 C 62.101 127.209 63.343 124.925 63.343 124.925 C 63.343 124.925 84.889 83.57 89.2 72.71 C 93.511 61.85 83.7 54.062 77.488 51.091 C 71.276 48.121 72.498 45.822 72.965 43.274 C 73.432 40.726 74.978 36.498 76.836 28.438 C 78.812 14.956 69.286 17.084 67.304 17.387 C 66.823 17.461 66.219 17.453 63.549 16.981 C 64.274 15.147 66.241 9.248 65.694 6.216 C 65.22 3.478 62.918 5.074 60.94 5.561 C 59.162 6 50.141 9.135 39.06 5.561 C 36.953 4.882 34.78 3.478 34.306 6.216 C 33.758 9.248 35.726 15.147 36.451 16.981 C 33.781 17.453 31.808 17.461 31.328 17.387 C 29.346 17.084 21.188 14.956 23.164 28.438 C 25.022 36.498 26.568 40.726 27.035 43.274 C 27.502 45.822 28.724 48.121 22.512 51.091 C 16.3 54.062 6.489 61.85 10.8 72.71 C 15.111 83.57 36.656 124.925 36.656 124.925 C 36.656 124.925 37.899 127.209 36.906 130.114 C 35.913 133.019 38.678 135.407 51.411 135.407" fill="rgb(255,255,255)"/></clipPath><g clip-path="url(#_clipPath_nKZ7cUyYQiK2EFZYRrp0YzjgBb8oXB6j)"><path d=" M 92.133 84.284 L 7.469 84.284 L 7.469 57.365 L 92.133 57.365 L 92.133 84.284 Z " fill="rgb(254,254,254)"/><path d=" M 54.469 65.653 C 53.255 65.653 52.966 66.733 52.966 70.241 L 52.966 71.725 C 52.966 75.156 53.274 75.946 54.469 75.946 C 55.683 75.946 55.972 74.867 55.972 71.359 L 55.972 69.875 C 55.972 66.444 55.664 65.653 54.469 65.653 Z " fill="rgb(198,52,55)"/><path d=" M 63.973 65.653 C 62.759 65.653 62.47 66.733 62.47 70.241 L 62.47 71.725 C 62.47 75.156 62.778 75.946 63.973 75.946 C 65.188 75.946 65.477 74.867 65.477 71.359 L 65.477 69.875 C 65.477 66.444 65.169 65.653 63.973 65.653 Z " fill="rgb(198,52,55)"/><path d=" M 19.528 65.653 C 18.314 65.653 18.025 66.733 18.025 70.241 L 18.025 71.725 C 18.025 75.156 18.333 75.946 19.528 75.946 C 20.742 75.946 21.031 74.867 21.031 71.359 L 21.031 69.875 C 21.031 66.444 20.723 65.653 19.528 65.653 Z " fill="rgb(198,52,55)"/><path d=" M 44.964 65.653 C 43.75 65.653 43.461 66.733 43.461 70.241 L 43.461 71.725 C 43.461 75.156 43.769 75.946 44.964 75.946 C 46.178 75.946 46.467 74.867 46.467 71.359 L 46.467 69.875 C 46.467 66.444 46.159 65.653 44.964 65.653 Z " fill="rgb(198,52,55)"/><path d=" M 84.354 77.488 L 81.578 77.488 L 81.578 67.851 L 78.861 67.851 L 78.861 66.039 L 79.111 66.039 C 80.924 66.039 82.041 65.345 82.311 63.842 L 84.354 63.842 L 84.354 77.488 Z  M 73.479 77.758 C 70.183 77.758 69.2 75.966 69.2 71.127 C 69.2 67.35 69.412 63.842 73.479 63.842 C 76.775 63.842 77.758 65.634 77.758 70.473 C 77.758 74.27 77.546 77.758 73.479 77.758 Z  M 63.973 77.758 C 60.677 77.758 59.695 75.966 59.695 71.127 C 59.695 67.35 59.906 63.842 63.973 63.842 C 67.27 63.842 68.253 65.634 68.253 70.473 C 68.253 74.27 68.041 77.758 63.973 77.758 Z  M 54.469 77.758 C 51.173 77.758 50.19 75.966 50.19 71.127 C 50.19 67.35 50.402 63.842 54.469 63.842 C 57.765 63.842 58.748 65.634 58.748 70.473 C 58.748 74.27 58.536 77.758 54.469 77.758 Z  M 44.964 77.758 C 41.668 77.758 40.685 75.966 40.685 71.127 C 40.685 67.35 40.897 63.842 44.964 63.842 C 48.26 63.842 49.243 65.634 49.243 70.473 C 49.243 74.27 49.031 77.758 44.964 77.758 Z  M 38.328 77.488 L 35.552 77.488 L 35.552 67.851 L 32.834 67.851 L 32.834 66.039 L 33.085 66.039 C 34.897 66.039 36.014 65.345 36.284 63.842 L 38.328 63.842 L 38.328 77.488 Z  M 19.528 77.758 C 16.232 77.758 15.249 75.966 15.249 71.127 C 15.249 67.35 15.461 63.842 19.528 63.842 C 22.824 63.842 23.807 65.634 23.807 70.473 C 23.807 74.27 23.595 77.758 19.528 77.758 Z  M 7.469 60.687 L 7.469 81.057 L 92.133 81.057 L 92.133 60.687 L 7.469 60.687 Z " fill="rgb(198,52,55)"/><path d=" M 73.479 65.653 C 72.264 65.653 71.976 66.733 71.976 70.241 L 71.976 71.725 C 71.976 75.156 72.284 75.946 73.479 75.946 C 74.693 75.946 74.982 74.867 74.982 71.359 L 74.982 69.875 C 74.982 66.444 74.674 65.653 73.479 65.653 Z " fill="rgb(198,52,55)"/></g><path d=" M 66.91 45.327 C 63.549 45.161 62.489 38.452 62.241 36.177 C 61.751 31.667 60.765 20.262 68.24 21.316 C 74.801 22.241 73.498 28.62 72.581 33.374 C 72.069 36.027 71.051 45.532 66.91 45.327 Z  M 37.758 36.177 C 37.511 38.452 36.45 45.161 33.09 45.327 C 28.949 45.532 27.931 36.027 27.419 33.374 C 26.502 28.62 25.198 22.241 31.759 21.316 C 39.235 20.262 38.249 31.667 37.758 36.177 Z  M 77.488 51.091 C 71.276 48.121 72.498 45.822 72.965 43.274 C 73.432 40.726 74.978 36.498 76.836 28.438 C 78.812 14.956 69.286 17.084 67.304 17.387 C 66.823 17.461 66.219 17.453 63.549 16.981 C 64.274 15.147 66.241 9.248 65.694 6.216 C 65.22 3.478 62.918 5.074 60.94 5.561 C 59.162 6 50.141 9.135 39.06 5.561 C 36.953 4.882 34.78 3.478 34.306 6.216 C 33.758 9.248 35.726 15.147 36.451 16.981 C 33.781 17.453 31.808 17.461 31.328 17.387 C 29.346 17.084 21.188 14.956 23.164 28.438 C 25.022 36.498 26.568 40.726 27.035 43.274 C 27.502 45.822 28.724 48.121 22.512 51.091 C 16.3 54.062 6.489 61.85 10.8 72.71 C 15.111 83.57 36.656 124.925 36.656 124.925 C 36.656 124.925 37.899 127.209 36.906 130.114 C 35.952 132.907 38.496 135.214 50 135.389 C 61.504 135.214 64.049 132.907 63.094 130.114 C 62.101 127.209 63.343 124.925 63.343 124.925 C 63.343 124.925 84.889 83.57 89.2 72.71 C 93.511 61.85 83.7 54.062 77.488 51.091 Z " fill-rule="evenodd" fill="none" vector-effect="non-scaling-stroke" stroke-width="0.283" stroke="rgb(55,53,53)" stroke-linejoin="miter" stroke-linecap="butt" stroke-miterlimit="10"/><clipPath id="_clipPath_kojj71pD7OAylIWut3xh8cWCYYnGMF5Y"><path d=" M 48.589 135.407 C 61.322 135.407 64.087 133.019 63.094 130.114 C 62.101 127.209 63.343 124.925 63.343 124.925 C 63.343 124.925 84.889 83.57 89.2 72.71 C 93.511 61.85 83.7 54.062 77.488 51.091 C 71.276 48.121 72.498 45.822 72.965 43.274 C 73.432 40.726 74.978 36.498 76.836 28.438 C 78.812 14.956 69.286 17.084 67.304 17.387 C 66.823 17.461 66.219 17.453 63.549 16.981 C 64.274 15.147 66.241 9.248 65.694 6.216 C 65.22 3.478 62.918 5.074 60.94 5.561 C 59.162 6 50.141 9.135 39.06 5.561 C 36.953 4.882 34.78 3.478 34.306 6.216 C 33.758 9.248 35.726 15.147 36.451 16.981 C 33.781 17.453 31.808 17.461 31.328 17.387 C 29.346 17.084 21.188 14.956 23.164 28.438 C 25.022 36.498 26.568 40.726 27.035 43.274 C 27.502 45.822 28.724 48.121 22.512 51.091 C 16.3 54.062 6.489 61.85 10.8 72.71 C 15.111 83.57 36.656 124.925 36.656 124.925 C 36.656 124.925 37.899 127.209 36.906 130.114 C 35.913 133.019 38.678 135.407 51.411 135.407" fill="rgb(255,255,255)"/></clipPath><g clip-path="url(#_clipPath_kojj71pD7OAylIWut3xh8cWCYYnGMF5Y)"><path d=" M 92.133 84.284 L 7.469 84.284 L 7.469 57.365 L 92.133 57.365 L 92.133 84.284 Z " fill="rgb(55,53,53)"/><path d=" M 54.469 65.653 C 53.255 65.653 52.966 66.733 52.966 70.241 L 52.966 71.725 C 52.966 75.156 53.274 75.946 54.469 75.946 C 55.683 75.946 55.972 74.867 55.972 71.359 L 55.972 69.875 C 55.972 66.444 55.664 65.653 54.469 65.653 Z " fill="rgb(198,52,55)"/><path d=" M 63.973 65.653 C 62.759 65.653 62.47 66.733 62.47 70.241 L 62.47 71.725 C 62.47 75.156 62.778 75.946 63.973 75.946 C 65.188 75.946 65.477 74.867 65.477 71.359 L 65.477 69.875 C 65.477 66.444 65.169 65.653 63.973 65.653 Z " fill="rgb(198,52,55)"/><path d=" M 19.528 65.653 C 18.314 65.653 18.025 66.733 18.025 70.241 L 18.025 71.725 C 18.025 75.156 18.333 75.946 19.528 75.946 C 20.742 75.946 21.031 74.867 21.031 71.359 L 21.031 69.875 C 21.031 66.444 20.723 65.653 19.528 65.653 Z " fill="rgb(198,52,55)"/><path d=" M 44.964 65.653 C 43.75 65.653 43.461 66.733 43.461 70.241 L 43.461 71.725 C 43.461 75.156 43.769 75.946 44.964 75.946 C 46.178 75.946 46.467 74.867 46.467 71.359 L 46.467 69.875 C 46.467 66.444 46.159 65.653 44.964 65.653 Z " fill="rgb(198,52,55)"/><path d=" M 7.469 60.687 L 7.469 81.057 L 92.133 81.057 L 92.133 60.687 L 7.469 60.687 Z " fill="rgb(198,52,55)"/><path d=" M 73.479 65.653 C 72.264 65.653 71.976 66.733 71.976 70.241 L 71.976 71.725 C 71.976 75.156 72.284 75.946 73.479 75.946 C 74.693 75.946 74.982 74.867 74.982 71.359 L 74.982 69.875 C 74.982 66.444 74.674 65.653 73.479 65.653 Z " fill="rgb(198,52,55)"/></g><path d=" M 35.552 77.488 L 38.328 77.488 L 38.328 63.842 L 36.284 63.842 C 36.014 65.345 34.897 66.039 33.085 66.039 L 32.834 66.039 L 32.834 67.851 L 35.552 67.851 L 35.552 77.488 Z " fill="rgb(254,254,254)"/><path d=" M 27.628 77.488 L 30.403 77.488 L 30.403 63.842 L 28.36 63.842 C 28.09 65.345 26.972 66.039 25.16 66.039 L 24.91 66.039 L 24.91 67.851 L 27.628 67.851 L 27.628 77.488 Z " fill="rgb(254,254,254)"/><path d=" M 62.47 70.241 C 62.47 66.733 62.759 65.653 63.973 65.653 C 65.169 65.653 65.477 66.444 65.477 69.875 L 65.477 71.359 C 65.477 74.867 65.188 75.946 63.973 75.946 C 62.778 75.946 62.47 75.156 62.47 71.725 L 62.47 70.241 Z  M 63.973 77.758 C 68.041 77.758 68.253 74.27 68.253 70.473 C 68.253 65.634 67.27 63.842 63.973 63.842 C 59.906 63.842 59.695 67.35 59.695 71.127 C 59.695 75.966 60.677 77.758 63.973 77.758 Z " fill="rgb(254,254,254)"/><path d=" M 81.578 77.488 L 84.354 77.488 L 84.354 63.842 L 82.311 63.842 C 82.041 65.345 80.924 66.039 79.111 66.039 L 78.861 66.039 L 78.861 67.851 L 81.578 67.851 L 81.578 77.488 Z " fill="rgb(254,254,254)"/><path d=" M 71.976 70.241 C 71.976 66.733 72.264 65.653 73.479 65.653 C 74.674 65.653 74.982 66.444 74.982 69.875 L 74.982 71.359 C 74.982 74.867 74.693 75.946 73.479 75.946 C 72.284 75.946 71.976 75.156 71.976 71.725 L 71.976 70.241 Z  M 73.479 77.758 C 77.546 77.758 77.758 74.27 77.758 70.473 C 77.758 65.634 76.775 63.842 73.479 63.842 C 69.412 63.842 69.2 67.35 69.2 71.127 C 69.2 75.966 70.183 77.758 73.479 77.758 Z " fill="rgb(254,254,254)"/><path d=" M 53.023 70.241 C 53.023 66.733 53.312 65.653 54.526 65.653 C 55.721 65.653 56.029 66.444 56.029 69.875 L 56.029 71.359 C 56.029 74.867 55.74 75.946 54.526 75.946 C 53.331 75.946 53.023 75.156 53.023 71.725 L 53.023 70.241 Z  M 54.526 77.758 C 58.593 77.758 58.805 74.27 58.805 70.473 C 58.805 65.634 57.822 63.842 54.526 63.842 C 50.459 63.842 50.247 67.35 50.247 71.127 C 50.247 75.966 51.23 77.758 54.526 77.758 Z " fill="rgb(254,254,254)"/><path d=" M 43.412 70.241 C 43.412 66.733 43.701 65.653 44.915 65.653 C 46.11 65.653 46.418 66.444 46.418 69.875 L 46.418 71.359 C 46.418 74.867 46.129 75.946 44.915 75.946 C 43.72 75.946 43.412 75.156 43.412 71.725 L 43.412 70.241 Z  M 44.915 77.758 C 48.982 77.758 49.194 74.27 49.194 70.473 C 49.194 65.634 48.211 63.842 44.915 63.842 C 40.848 63.842 40.636 67.35 40.636 71.127 C 40.636 75.966 41.619 77.758 44.915 77.758 Z " fill="rgb(254,254,254)"/><path d=" M 18.025 70.241 C 18.025 66.733 18.314 65.653 19.527 65.653 C 20.723 65.653 21.031 66.444 21.031 69.875 L 21.031 71.359 C 21.031 74.867 20.742 75.946 19.527 75.946 C 18.333 75.946 18.025 75.156 18.025 71.725 L 18.025 70.241 Z  M 19.527 77.758 C 23.595 77.758 23.807 74.27 23.807 70.473 C 23.807 65.634 22.824 63.842 19.527 63.842 C 15.461 63.842 15.249 67.35 15.249 71.127 C 15.249 75.966 16.232 77.758 19.527 77.758 Z " fill="rgb(254,254,254)"/></g></g></g></svg>