<svg xmlns="http://www.w3.org/2000/svg" style="isolation:isolate" viewBox="0 0 100 140" width="100pt" height="140pt"><defs><clipPath id="a"><path d="M0 0h100v140H0z"/></clipPath></defs><g clip-path="url(#a)"><path d="M66.91 45.327c-3.361-.166-4.421-6.875-4.669-9.15-.49-4.51-1.476-15.915 5.999-14.861 6.561.925 5.258 7.304 4.341 12.058-.512 2.653-1.53 12.158-5.671 11.953zm-29.152-9.15c-.247 2.275-1.308 8.984-4.668 9.15-4.141.205-5.159-9.3-5.671-11.953-.917-4.754-2.221-11.133 4.34-12.058 7.476-1.054 6.49 10.351 5.999 14.861zm39.73 14.914c-6.212-2.97-4.99-5.269-4.523-7.817.467-2.548 2.013-6.776 3.871-14.836 1.976-13.482-7.55-11.354-9.532-11.051-.481.074-1.085.066-3.755-.406.725-1.834 2.692-7.733 2.145-10.765-.474-2.738-2.776-1.142-4.754-.655-1.778.439-10.799 3.574-21.88 0-2.107-.679-4.28-2.083-4.754.655-.548 3.032 1.42 8.931 2.145 10.765-2.67.472-4.643.48-5.123.406-1.982-.303-10.14-2.431-8.164 11.051 1.858 8.06 3.404 12.288 3.871 14.836.467 2.548 1.689 4.847-4.523 7.817C16.3 54.062 6.489 61.85 10.8 72.71s25.856 52.215 25.856 52.215 1.243 2.284.25 5.189c-.954 2.793 1.59 5.1 13.094 5.275 11.504-.175 14.049-2.482 13.094-5.275-.993-2.905.249-5.189.249-5.189S84.889 83.57 89.2 72.71c4.311-10.86-5.5-18.648-11.712-21.619z" fill="#373535"/><path d="M38.472 129.567c0 3.571 1.4 4.268 11.532 4.415 10.131-.147 11.532-.844 11.532-4.415H38.472zM61.926 13.892c1.414-1.414 1.888-2.123 1.888-5.053 0-2.445-2.444-1.006-4.184-.576-1.566.385-9.505 3.145-19.26 0-1.854-.598-4.184-1.869-4.184.576 0 2.871.795 3.959 1.888 5.053h23.852z" fill="#FEFEFE"/><clipPath id="b"><path d="M48.589 135.407c12.733 0 15.498-2.388 14.505-5.293-.993-2.905.249-5.189.249-5.189S84.889 83.57 89.2 72.71c4.311-10.86-5.5-18.648-11.712-21.619-6.212-2.97-4.99-5.269-4.523-7.817.467-2.548 2.013-6.776 3.871-14.836 1.976-13.482-7.55-11.354-9.532-11.051-.481.074-1.085.066-3.755-.406.725-1.834 2.692-7.733 2.145-10.765-.474-2.738-2.776-1.142-4.754-.655-1.778.439-10.799 3.574-21.88 0-2.107-.679-4.28-2.083-4.754.655-.548 3.032 1.42 8.931 2.145 10.765-2.67.472-4.643.48-5.123.406-1.982-.303-10.14-2.431-8.164 11.051 1.858 8.06 3.404 12.288 3.871 14.836.467 2.548 1.689 4.847-4.523 7.817C16.3 54.062 6.489 61.85 10.8 72.71s25.856 52.215 25.856 52.215 1.243 2.284.25 5.189c-.993 2.905 1.772 5.293 14.505 5.293" fill="#FFF"/></clipPath><g clip-path="url(#b)"><path d="M92.133 84.284H7.469V57.365h84.664v26.919z" fill="#FEFEFE"/><path d="M54.469 65.653c-1.214 0-1.503 1.08-1.503 4.588v1.484c0 3.431.308 4.221 1.503 4.221 1.214 0 1.503-1.079 1.503-4.587v-1.484c0-3.431-.308-4.222-1.503-4.222zm9.504 0c-1.214 0-1.503 1.08-1.503 4.588v1.484c0 3.431.308 4.221 1.503 4.221 1.215 0 1.504-1.079 1.504-4.587v-1.484c0-3.431-.308-4.222-1.504-4.222zm-44.445 0c-1.214 0-1.503 1.08-1.503 4.588v1.484c0 3.431.308 4.221 1.503 4.221 1.214 0 1.503-1.079 1.503-4.587v-1.484c0-3.431-.308-4.222-1.503-4.222zm25.436 0c-1.214 0-1.503 1.08-1.503 4.588v1.484c0 3.431.308 4.221 1.503 4.221 1.214 0 1.503-1.079 1.503-4.587v-1.484c0-3.431-.308-4.222-1.503-4.222z" fill="#C63437"/><path d="M84.354 77.488h-2.776v-9.637h-2.717v-1.812h.25c1.813 0 2.93-.694 3.2-2.197h2.043v13.646zm-10.875.27c-3.296 0-4.279-1.792-4.279-6.631 0-3.777.212-7.285 4.279-7.285 3.296 0 4.279 1.792 4.279 6.631 0 3.797-.212 7.285-4.279 7.285zm-9.506 0c-3.296 0-4.278-1.792-4.278-6.631 0-3.777.211-7.285 4.278-7.285 3.297 0 4.28 1.792 4.28 6.631 0 3.797-.212 7.285-4.28 7.285zm-9.504 0c-3.296 0-4.279-1.792-4.279-6.631 0-3.777.212-7.285 4.279-7.285 3.296 0 4.279 1.792 4.279 6.631 0 3.797-.212 7.285-4.279 7.285zm-9.505 0c-3.296 0-4.279-1.792-4.279-6.631 0-3.777.212-7.285 4.279-7.285 3.296 0 4.279 1.792 4.279 6.631 0 3.797-.212 7.285-4.279 7.285zm-6.636-.27h-2.776v-9.637h-2.718v-1.812h.251c1.812 0 2.929-.694 3.199-2.197h2.044v13.646zm-18.8.27c-3.296 0-4.279-1.792-4.279-6.631 0-3.777.212-7.285 4.279-7.285 3.296 0 4.279 1.792 4.279 6.631 0 3.797-.212 7.285-4.279 7.285zM7.469 60.687v20.37h84.664v-20.37H7.469z" fill="#C63437"/><path d="M73.479 65.653c-1.215 0-1.503 1.08-1.503 4.588v1.484c0 3.431.308 4.221 1.503 4.221 1.214 0 1.503-1.079 1.503-4.587v-1.484c0-3.431-.308-4.222-1.503-4.222z" fill="#C63437"/></g><path d="M66.91 45.327c-3.361-.166-4.421-6.875-4.669-9.15-.49-4.51-1.476-15.915 5.999-14.861 6.561.925 5.258 7.304 4.341 12.058-.512 2.653-1.53 12.158-5.671 11.953zm-29.152-9.15c-.247 2.275-1.308 8.984-4.668 9.15-4.141.205-5.159-9.3-5.671-11.953-.917-4.754-2.221-11.133 4.34-12.058 7.476-1.054 6.49 10.351 5.999 14.861zm39.73 14.914c-6.212-2.97-4.99-5.269-4.523-7.817.467-2.548 2.013-6.776 3.871-14.836 1.976-13.482-7.55-11.354-9.532-11.051-.481.074-1.085.066-3.755-.406.725-1.834 2.692-7.733 2.145-10.765-.474-2.738-2.776-1.142-4.754-.655-1.778.439-10.799 3.574-21.88 0-2.107-.679-4.28-2.083-4.754.655-.548 3.032 1.42 8.931 2.145 10.765-2.67.472-4.643.48-5.123.406-1.982-.303-10.14-2.431-8.164 11.051 1.858 8.06 3.404 12.288 3.871 14.836.467 2.548 1.689 4.847-4.523 7.817C16.3 54.062 6.489 61.85 10.8 72.71s25.856 52.215 25.856 52.215 1.243 2.284.25 5.189c-.954 2.793 1.59 5.1 13.094 5.275 11.504-.175 14.049-2.482 13.094-5.275-.993-2.905.249-5.189.249-5.189S84.889 83.57 89.2 72.71c4.311-10.86-5.5-18.648-11.712-21.619z" fill="none" vector-effect="non-scaling-stroke" stroke-width=".283" stroke="#373535" stroke-miterlimit="10"/><clipPath id="c"><path d="M48.589 135.407c12.733 0 15.498-2.388 14.505-5.293-.993-2.905.249-5.189.249-5.189S84.889 83.57 89.2 72.71c4.311-10.86-5.5-18.648-11.712-21.619-6.212-2.97-4.99-5.269-4.523-7.817.467-2.548 2.013-6.776 3.871-14.836 1.976-13.482-7.55-11.354-9.532-11.051-.481.074-1.085.066-3.755-.406.725-1.834 2.692-7.733 2.145-10.765-.474-2.738-2.776-1.142-4.754-.655-1.778.439-10.799 3.574-21.88 0-2.107-.679-4.28-2.083-4.754.655-.548 3.032 1.42 8.931 2.145 10.765-2.67.472-4.643.48-5.123.406-1.982-.303-10.14-2.431-8.164 11.051 1.858 8.06 3.404 12.288 3.871 14.836.467 2.548 1.689 4.847-4.523 7.817C16.3 54.062 6.489 61.85 10.8 72.71s25.856 52.215 25.856 52.215 1.243 2.284.25 5.189c-.993 2.905 1.772 5.293 14.505 5.293" fill="#FFF"/></clipPath><g clip-path="url(#c)"><path d="M92.133 84.284H7.469V57.365h84.664v26.919z" fill="#373535"/><path d="M54.469 65.653c-1.214 0-1.503 1.08-1.503 4.588v1.484c0 3.431.308 4.221 1.503 4.221 1.214 0 1.503-1.079 1.503-4.587v-1.484c0-3.431-.308-4.222-1.503-4.222zm9.504 0c-1.214 0-1.503 1.08-1.503 4.588v1.484c0 3.431.308 4.221 1.503 4.221 1.215 0 1.504-1.079 1.504-4.587v-1.484c0-3.431-.308-4.222-1.504-4.222zm-44.445 0c-1.214 0-1.503 1.08-1.503 4.588v1.484c0 3.431.308 4.221 1.503 4.221 1.214 0 1.503-1.079 1.503-4.587v-1.484c0-3.431-.308-4.222-1.503-4.222zm25.436 0c-1.214 0-1.503 1.08-1.503 4.588v1.484c0 3.431.308 4.221 1.503 4.221 1.214 0 1.503-1.079 1.503-4.587v-1.484c0-3.431-.308-4.222-1.503-4.222z" fill="#C63437"/><path d="M7.469 60.687v20.37h84.664v-20.37H7.469z" fill="#C63437"/><path d="M73.479 65.653c-1.215 0-1.503 1.08-1.503 4.588v1.484c0 3.431.308 4.221 1.503 4.221 1.214 0 1.503-1.079 1.503-4.587v-1.484c0-3.431-.308-4.222-1.503-4.222z" fill="#C63437"/></g><path d="M35.552 77.488h2.776V63.842h-2.044c-.27 1.503-1.387 2.197-3.199 2.197h-.251v1.812h2.718v9.637zm-7.924 0h2.775V63.842H28.36c-.27 1.503-1.388 2.197-3.2 2.197h-.25v1.812h2.718v9.637zm34.842-7.247c0-3.508.289-4.588 1.503-4.588 1.196 0 1.504.791 1.504 4.222v1.484c0 3.508-.289 4.587-1.504 4.587-1.195 0-1.503-.79-1.503-4.221v-1.484zm1.503 7.517c4.068 0 4.28-3.488 4.28-7.285 0-4.839-.983-6.631-4.28-6.631-4.067 0-4.278 3.508-4.278 7.285 0 4.839.982 6.631 4.278 6.631zm17.605-.27h2.776V63.842h-2.043c-.27 1.503-1.387 2.197-3.2 2.197h-.25v1.812h2.717v9.637zm-9.602-7.247c0-3.508.288-4.588 1.503-4.588 1.195 0 1.503.791 1.503 4.222v1.484c0 3.508-.289 4.587-1.503 4.587-1.195 0-1.503-.79-1.503-4.221v-1.484zm1.503 7.517c4.067 0 4.279-3.488 4.279-7.285 0-4.839-.983-6.631-4.279-6.631-4.067 0-4.279 3.508-4.279 7.285 0 4.839.983 6.631 4.279 6.631zm-20.456-7.517c0-3.508.289-4.588 1.503-4.588 1.195 0 1.503.791 1.503 4.222v1.484c0 3.508-.289 4.587-1.503 4.587-1.195 0-1.503-.79-1.503-4.221v-1.484zm1.503 7.517c4.067 0 4.279-3.488 4.279-7.285 0-4.839-.983-6.631-4.279-6.631-4.067 0-4.279 3.508-4.279 7.285 0 4.839.983 6.631 4.279 6.631zm-11.114-7.517c0-3.508.289-4.588 1.503-4.588 1.195 0 1.503.791 1.503 4.222v1.484c0 3.508-.289 4.587-1.503 4.587-1.195 0-1.503-.79-1.503-4.221v-1.484zm1.503 7.517c4.067 0 4.279-3.488 4.279-7.285 0-4.839-.983-6.631-4.279-6.631-4.067 0-4.279 3.508-4.279 7.285 0 4.839.983 6.631 4.279 6.631zm-26.89-7.517c0-3.508.289-4.588 1.502-4.588 1.196 0 1.504.791 1.504 4.222v1.484c0 3.508-.289 4.587-1.504 4.587-1.194 0-1.502-.79-1.502-4.221v-1.484zm1.502 7.517c4.068 0 4.28-3.488 4.28-7.285 0-4.839-.983-6.631-4.28-6.631-4.066 0-4.278 3.508-4.278 7.285 0 4.839.983 6.631 4.278 6.631z" fill="#FEFEFE"/></g></svg>