<svg data-name="Layer 1" xmlns="http://www.w3.org/2000/svg" xmlns:xlink="http://www.w3.org/1999/xlink" width="912.5" height="703.5" viewBox="0 0 912.5 703.5"><defs><linearGradient id="a" x1="424.5" y1="675" x2="424.5" gradientUnits="userSpaceOnUse"><stop offset="0" stop-color="gray" stop-opacity=".25"/><stop offset=".54" stop-color="gray" stop-opacity=".12"/><stop offset="1" stop-color="gray" stop-opacity=".1"/></linearGradient><linearGradient id="c" x1="191.5" y1="281" x2="191.5" y2="256" xlink:href="#a"/><linearGradient id="b" x1="627.5" y1="281" x2="627.5" y2="256" gradientUnits="userSpaceOnUse"><stop offset="0" stop-opacity=".12"/><stop offset=".55" stop-opacity=".09"/><stop offset="1" stop-opacity=".02"/></linearGradient><linearGradient id="d" x1="198" y1="328" x2="198" y2="312" xlink:href="#a"/><linearGradient id="e" x1="634" y1="328" x2="634" y2="312" xlink:href="#b"/><linearGradient id="f" x1="634" y1="353" x2="634" y2="337" xlink:href="#b"/><linearGradient id="g" x1="634" y1="378" x2="634" y2="362" xlink:href="#b"/><linearGradient id="h" x1="634" y1="403" x2="634" y2="387" xlink:href="#b"/><linearGradient id="i" x1="634" y1="428" x2="634" y2="412" xlink:href="#b"/><linearGradient id="j" x1="198" y1="353" x2="198" y2="337" xlink:href="#a"/><linearGradient id="k" x1="198" y1="378" x2="198" y2="362" xlink:href="#a"/><linearGradient id="l" x1="198" y1="403" x2="198" y2="387" xlink:href="#a"/><linearGradient id="m" x1="198" y1="428" x2="198" y2="412" xlink:href="#a"/></defs><path fill="#bc312a" opacity=".2" d="M66.5 79.5h846v624h-846z"/><path fill="url(#a)" d="M0 0v675h849V0H0z"/><path fill="#fff" d="M12 42h828v621H12z"/><path fill="#f5f5f5" d="M12 9h828v33H12z"/><circle cx="36" cy="25" r="8" fill="#ff5252"/><circle cx="58" cy="25" r="8" fill="#ff0"/><circle cx="80" cy="25" r="8" fill="#69f0ae"/><path fill="#bc312a" d="M426 42h414v621H426z"/><path fill="url(#c)" d="M78 256h227v25H78z"/><path fill="url(#b)" d="M514 256h227v25H514z"/><path fill="#bc312a" d="M82 259h220v18H82z"/><path fill="url(#d)" d="M47 312h302v16H47z"/><path fill="url(#e)" d="M483 312h302v16H483z"/><path fill="url(#f)" d="M483 337h302v16H483z"/><path fill="url(#g)" d="M483 362h302v16H483z"/><path fill="url(#h)" d="M483 387h302v16H483z"/><path fill="url(#i)" d="M483 412h302v16H483z"/><path fill="url(#j)" d="M47 337h302v16H47z"/><path fill="url(#k)" d="M47 362h302v16H47z"/><path fill="url(#l)" d="M47 387h302v16H47z"/><path fill="url(#m)" d="M47 412h302v16H47z"/><path fill="#bc312a" d="M50 314h297v11H50zm0 25h297v11H50zm0 25h297v11H50zm0 25h297v11H50zm0 25h297v11H50z"/><path fill="#fff" d="M517 259h220v18H517zm-32 55h297v11H485zm0 25h297v11H485zm0 25h297v11H485zm0 25h297v11H485zm0 25h297v11H485z"/></svg>